<svg width="34" height="34" viewBox="0 0 34 34" fill="none" xmlns="http://www.w3.org/2000/svg">
<path d="M10.2094 34C9.27357 34 8.47241 33.6671 7.80596 33.0013C7.13951 32.3354 6.80629 31.535 6.80629 30.6C6.80629 29.665 7.13951 28.8646 7.80596 28.1988C8.47241 27.5329 9.27357 27.2 10.2094 27.2C11.1453 27.2 11.9465 27.5329 12.6129 28.1988C13.2794 28.8646 13.6126 29.665 13.6126 30.6C13.6126 31.535 13.2794 32.3354 12.6129 33.0013C11.9465 33.6671 11.1453 34 10.2094 34ZM27.2252 34C26.2893 34 25.4881 33.6671 24.8217 33.0013C24.1552 32.3354 23.822 31.535 23.822 30.6C23.822 29.665 24.1552 28.8646 24.8217 28.1988C25.4881 27.5329 26.2893 27.2 27.2252 27.2C28.161 27.2 28.9622 27.5329 29.6286 28.1988C30.2951 28.8646 30.6283 29.665 30.6283 30.6C30.6283 31.535 30.2951 32.3354 29.6286 33.0013C28.9622 33.6671 28.161 34 27.2252 34ZM8.7631 6.8L12.8469 15.3H24.7579L29.4372 6.8H8.7631ZM7.1466 3.4H32.2448C32.8971 3.4 33.3934 3.69042 33.7337 4.27125C34.074 4.85208 34.0882 5.44 33.7762 6.035L27.7356 16.915C27.4237 17.4817 27.0054 17.9208 26.4807 18.2325C25.9561 18.5442 25.3818 18.7 24.7579 18.7H12.0812L10.2094 22.1H30.6283V25.5H10.2094C8.93325 25.5 7.96903 24.9404 7.31676 23.8213C6.66449 22.7021 6.63613 21.59 7.23168 20.485L9.5288 16.32L3.40314 3.4H0V0H5.53011L7.1466 3.4Z" fill="white"/>
</svg>
