<svg width="308" height="308" viewBox="0 0 308 308" fill="none" xmlns="http://www.w3.org/2000/svg">
<path fill-rule="evenodd" clip-rule="evenodd" d="M269.5 308H216.563C203.272 308 192.501 297.219 192.501 283.938V216.563C192.501 203.272 203.272 192.501 216.563 192.501H224.336C229.341 192.501 234.469 188.497 235.803 183.459L240.907 164.237C242.401 158.636 239.216 153.997 233.777 153.997H216.562C203.272 153.997 192.501 143.228 192.501 129.942V120.317C192.501 107.021 203.272 96.25 216.562 96.25H231.005C236.311 96.25 240.63 91.9452 240.63 86.625V67.3726C240.63 62.062 236.311 57.7452 231.005 57.7452H202.125C175.544 57.7452 154.005 79.298 154.005 105.877V129.942C154.005 143.227 143.224 153.997 129.941 153.997H125.354C119.917 153.997 115.501 158.636 115.501 164.237V183.459C115.501 188.497 119.559 192.501 124.567 192.501H129.941C143.225 192.501 154.005 203.272 154.005 216.563V283.938C154.005 297.219 143.224 308 129.941 308H125.129C119.808 308 115.501 303.686 115.501 298.375C115.501 293.055 119.808 288.75 125.129 288.75C130.437 288.75 134.754 284.436 134.754 279.125V221.376C134.754 216.055 130.437 211.751 125.129 211.751H118.815C106.351 211.751 96.2494 201.778 96.2494 189.146V160.318C96.2494 146.388 107.301 134.744 120.93 134.744H125.129C130.437 134.744 134.754 130.437 134.754 125.129V101.064C134.754 66.5093 162.762 38.5042 197.313 38.5042H235.818C249.104 38.5042 259.871 49.2734 259.871 62.5595V91.4369C259.871 104.722 249.104 115.501 235.818 115.501H211.751V125.129C211.751 130.437 216.055 134.744 221.376 134.744H239.404C253.042 134.744 261.901 146.387 259.293 160.318L253.883 189.146C251.519 201.778 239.554 211.751 227.09 211.751H221.376C216.055 211.751 211.751 216.055 211.751 221.376V279.125C211.751 284.436 216.055 288.75 221.376 288.75H269.5C280.131 288.75 288.75 280.131 288.75 269.5V38.5042C288.75 27.8638 280.131 19.2524 269.5 19.2524H38.5042C27.8734 19.2524 19.2524 27.8644 19.2524 38.5042V269.5C19.2524 280.131 27.874 288.75 38.5042 288.75H48.1292C53.4398 288.75 57.756 293.055 57.756 298.375C57.756 303.686 53.4398 308 48.1292 308H38.5042C17.2456 308 0 290.762 0 269.5V38.5042C0 17.2336 17.2456 0 38.5042 0H269.5C290.771 0 308 17.2336 308 38.5042V269.5C308 290.762 290.771 308 269.5 308ZM86.6244 288.75C91.9446 288.75 96.2494 293.055 96.2494 298.375C96.2494 303.686 91.9446 308 86.6244 308C81.3138 308 76.997 303.686 76.997 298.375C76.997 293.055 81.3138 288.75 86.6244 288.75Z" fill="white"/>
</svg>
