<svg width="308" height="308" viewBox="0 0 308 308" fill="none" xmlns="http://www.w3.org/2000/svg">
<path fill-rule="evenodd" clip-rule="evenodd" d="M105.808 192.529C107.085 192.5 108.355 192.727 109.544 193.196C110.732 193.665 111.815 194.367 112.728 195.26C113.642 196.153 114.367 197.22 114.863 198.398C115.359 199.575 115.614 200.84 115.614 202.118C115.614 203.395 115.359 204.66 114.863 205.838C114.367 207.015 113.642 208.082 112.728 208.975C111.815 209.869 110.732 210.57 109.544 211.039C108.355 211.508 107.085 211.735 105.808 211.707C103.302 211.651 100.917 210.616 99.1648 208.823C97.4124 207.031 96.4311 204.624 96.4311 202.118C96.4311 199.611 97.4124 197.204 99.1648 195.412C100.917 193.62 103.302 192.585 105.808 192.529ZM77.6978 165.064C71.6293 122.959 100.846 83.9156 142.951 77.847C185.055 71.7784 224.104 100.995 230.172 143.1C236.241 185.204 207.024 224.253 164.92 230.321C164.448 230.394 163.996 230.394 163.529 230.447L164.953 230.249C162.457 230.546 159.943 229.855 157.948 228.324C155.954 226.793 154.638 224.543 154.279 222.054C153.921 219.565 154.55 217.035 156.032 215.004C157.514 212.973 159.731 211.601 162.21 211.182L162.196 211.148H162.234C193.804 206.601 215.696 177.326 211.148 145.756C206.601 114.181 177.331 92.2893 145.756 96.8371C114.201 101.385 92.2893 130.659 96.8419 162.229C96.8419 162.244 96.8419 162.253 96.8516 162.253L96.8179 162.268C97.1816 164.796 96.5261 167.366 94.9954 169.411C93.4647 171.456 91.1843 172.809 88.6559 173.173C86.1274 173.537 83.558 172.881 81.5129 171.351C79.4678 169.82 78.1145 167.539 77.7508 165.011L77.9625 166.445C77.8951 165.973 77.7652 165.531 77.6978 165.064ZM230.947 62.5866C230.95 58.7515 232.475 55.0744 235.188 52.3635C237.9 49.6526 241.578 48.1298 245.413 48.1298C249.207 48.1307 252.848 49.6246 255.548 52.2884C258.249 54.9523 259.793 58.5721 259.846 62.3652V62.8176C259.793 66.6107 258.249 70.2305 255.548 72.8943C252.848 75.5582 249.207 77.052 245.413 77.0529C241.577 77.0529 237.897 75.5288 235.184 72.8158C232.471 70.1029 230.947 66.4233 230.947 62.5866ZM282.306 281.628C265.568 298.539 242.343 308 202.183 308H105.808C65.6473 308 42.427 298.539 25.6988 281.628C9.18225 264.947 0 241.664 0 202.192V105.817C0 66.3307 9.18225 43.0622 25.6988 26.3821C42.427 9.46619 65.6473 0 105.808 0H202.178C242.343 0 265.563 9.46619 282.301 26.3821C283.374 27.4553 284.356 28.6344 285.348 29.799C287.378 31.5604 288.692 34.1399 288.692 37.0418C288.692 39.5945 287.678 42.0427 285.873 43.8477C284.068 45.6528 281.62 46.6668 279.067 46.6668C276.16 46.6668 273.581 45.3482 271.82 43.3077L271.695 43.4088C270.703 42.2297 269.774 41.0073 268.677 39.9052C254.037 25.102 232.425 19.2933 197.274 19.2933H110.673C75.5322 19.2933 53.9626 25.102 39.3229 39.9052C24.871 54.5016 19.25 76.1722 19.25 110.712V197.322C19.25 231.876 24.871 253.489 39.3229 268.08C53.9626 282.879 75.5322 288.75 110.673 288.75H197.284C232.434 288.75 254.047 282.879 268.687 268.08C283.139 253.489 288.702 231.876 288.702 197.322V110.716C288.737 103.036 288.387 95.3582 287.653 87.7126L287.696 87.703C287.518 85.1889 288.325 82.7042 289.947 80.7747C291.568 78.8453 293.877 77.6226 296.384 77.3656C298.892 77.1086 301.4 77.8373 303.38 79.3976C305.359 80.9578 306.654 83.2271 306.989 85.7251C307.004 85.8646 306.989 85.9946 306.989 86.1341H307.013C307.658 92.6755 307.987 99.2442 308 105.817V202.188C308 241.665 298.808 264.947 282.306 281.628Z" fill="white"/>
</svg>
