<svg width="308" height="289" viewBox="0 0 308 289" fill="none" xmlns="http://www.w3.org/2000/svg">
<path fill-rule="evenodd" clip-rule="evenodd" d="M283.939 288.751H235.819C224.163 288.751 214.449 280.475 212.231 269.477C212.067 269.477 211.916 269.5 211.751 269.5V182.397C211.751 172.025 203.132 163.631 192.502 163.631C181.871 163.631 173.252 172.025 173.252 182.397V264.697C173.252 270.568 171.057 275.855 167.574 280.042C165.661 282.938 162.395 284.846 158.668 284.846C152.766 284.846 147.986 280.066 147.986 274.162C147.986 271.042 149.344 268.26 151.491 266.305C153.047 264.589 154.006 262.366 154.006 259.884V181.5C154.006 160.999 171.24 144.376 192.501 144.376C213.762 144.376 231.006 160.999 231.006 181.5V246.124C231.006 246.814 230.94 247.412 230.897 248.046C230.93 248.036 230.973 248.036 231.006 248.022V259.884C231.006 265.196 235.31 269.5 240.631 269.5H279.126C284.446 269.5 288.751 265.196 288.751 259.884V173.257C288.751 172.533 288.666 171.842 288.516 171.164C286.044 129.364 252.667 96.2443 211.751 96.2443C194.767 96.2443 179.127 102.006 166.419 111.679C166.372 111.655 166.32 111.665 166.221 111.74C164.891 112.813 163.232 113.397 161.522 113.394C157.363 113.394 154.007 110.024 154.007 105.87C154.007 105.353 153.976 105.085 153.922 105.01C153.478 100.108 149.399 96.2443 144.382 96.2443H115.503C104.874 96.2443 96.251 104.868 96.251 115.5V259.884C96.251 260.749 96.4038 261.581 96.6173 262.376C96.3723 263.125 96.2486 263.909 96.251 264.697C96.251 277.984 85.4817 288.751 72.186 288.751H24.0644C10.7812 288.751 0 277.984 0 264.697V101.057C0 87.7707 10.7812 77.0033 24.0644 77.0033H48.1294C64.0684 77.0033 76.9973 64.0739 76.9973 48.1222C76.9973 32.1711 64.0684 19.2416 48.1294 19.2416C32.1807 19.2416 19.2525 32.1711 19.2525 48.1222C19.2525 53.4424 14.9477 57.7472 9.62504 57.7472C4.31683 57.7472 0 53.4424 0 48.1222C0 21.5396 21.5505 0 48.1294 0C74.7107 0 96.2497 21.5396 96.2497 48.1222C96.2497 50.5615 96.0121 52.9347 95.6578 55.2802C95.5802 55.7314 95.5381 56.1964 95.4509 56.6475C95.0304 58.9882 94.4595 61.291 93.7027 63.5C93.672 63.6082 93.6179 63.7069 93.5854 63.8146C91.9465 68.5453 89.58 72.9915 86.5712 76.9931C77.7968 88.658 63.8645 96.2437 48.13 96.2437H28.8769C23.5567 96.2437 19.2519 100.563 19.2519 105.869V259.883C19.2519 265.194 23.5567 269.499 28.8769 269.499H77.4833C77.162 267.918 76.999 266.309 76.9967 264.696V115.5C76.9967 94.2375 94.2423 77.0033 115.501 77.0033H149.193C155.138 77.0033 160.543 79.1936 164.735 82.7885C164.787 82.8216 164.838 82.7651 164.895 82.8072C166.633 84.3044 168.852 85.1253 171.146 85.1196C172.462 85.1196 173.712 84.8609 174.844 84.3815C175.187 84.2311 175.394 84.2545 175.591 84.278C186.767 79.7007 198.92 77.0027 211.75 77.0027C261.643 77.0027 302.661 114.968 307.516 163.574C307.842 165.177 308.004 166.808 308 168.444V264.697C308.001 277.984 297.234 288.751 283.939 288.751ZM125.129 269.5C130.437 269.5 134.754 273.815 134.754 279.125C134.754 284.446 130.438 288.751 125.129 288.751C119.809 288.751 115.502 284.446 115.502 279.125C115.502 273.815 119.809 269.5 125.129 269.5Z" fill="white"/>
</svg>
