<svg width="45" height="45" viewBox="0 0 45 45" fill="none" xmlns="http://www.w3.org/2000/svg">
<path d="M22 11.25C22 17.1871 17.1871 22 11.25 22H0.5V11.25C0.5 5.31293 5.31293 0.5 11.25 0.5C17.1871 0.5 22 5.31293 22 11.25Z" stroke="white"/>
<path d="M23 33.75C23 27.8129 27.8129 23 33.75 23H44.5V33.75C44.5 39.6871 39.6871 44.5 33.75 44.5C27.8129 44.5 23 39.6871 23 33.75Z" stroke="white"/>
<path d="M11.25 44.5C5.31293 44.5 0.5 39.6871 0.5 33.75C0.5 27.8129 5.31293 23 11.25 23C17.1871 23 22 27.8129 22 33.75V44.5H11.25Z" stroke="white"/>
<path d="M33.75 0.5C39.6871 0.5 44.5 5.31293 44.5 11.25C44.5 17.1871 39.6871 22 33.75 22C27.8129 22 23 17.1871 23 11.25V0.5H33.75Z" stroke="white"/>
</svg>
