<svg width="140" height="30" viewBox="0 0 140 30" fill="none" xmlns="http://www.w3.org/2000/svg">
<path d="M39.3169 6.65503H42.2869V21.108H39.3169V6.65503Z" fill="white"/>
<path d="M43.9689 16.159C43.9648 15.1204 44.269 14.1038 44.843 13.2382C45.417 12.3726 46.235 11.6968 47.1934 11.2965C48.1518 10.8961 49.2074 10.7892 50.2266 10.9893C51.2458 11.1894 52.1827 11.6874 52.9186 12.4204C53.6545 13.1533 54.1563 14.0882 54.3605 15.1066C54.5647 16.125 54.462 17.1811 54.0655 18.1411C53.669 19.101 52.9965 19.9218 52.1332 20.4992C51.2698 21.0767 50.2546 21.385 49.2159 21.385C48.5265 21.3929 47.8424 21.2632 47.2036 21.0036C46.5648 20.744 45.9842 20.3597 45.4957 19.8732C45.0071 19.3866 44.6205 18.8075 44.3584 18.1698C44.0962 17.5321 43.9638 16.8485 43.9689 16.159ZM51.4929 16.159C51.4805 15.7113 51.3364 15.2772 51.0787 14.9109C50.8209 14.5447 50.4609 14.2625 50.0437 14.0998C49.6264 13.937 49.1705 13.9008 48.7328 13.9958C48.2951 14.0908 47.8951 14.3126 47.5828 14.6337C47.2706 14.9547 47.0598 15.3607 46.9771 15.8009C46.8943 16.241 46.943 16.6958 47.1173 17.1084C47.2916 17.521 47.5836 17.873 47.9568 18.1205C48.3301 18.368 48.7681 18.5 49.2159 18.5C49.5226 18.5082 49.8277 18.4527 50.112 18.3371C50.3962 18.2215 50.6534 18.0483 50.8673 17.8284C51.0812 17.6084 51.2473 17.3465 51.3549 17.0592C51.4626 16.7719 51.5096 16.4654 51.4929 16.159Z" fill="white"/>
<path d="M66.2999 11.2091V20.6091C66.2999 23.9351 63.7059 25.3411 61.0729 25.3411C60.1459 25.4105 59.2176 25.2232 58.3899 24.7999C57.5623 24.3765 56.8672 23.7334 56.3809 22.9411L58.9149 21.4761C59.1193 21.8891 59.445 22.2298 59.8483 22.4527C60.2517 22.6755 60.7135 22.7699 61.1719 22.7231C61.4649 22.7637 61.7633 22.7379 62.045 22.6476C62.3266 22.5573 62.5844 22.4048 62.7992 22.2015C63.014 21.9981 63.1803 21.7491 63.2859 21.4727C63.3914 21.1964 63.4334 20.8999 63.4089 20.6051V19.7001C63.0611 20.1256 62.6185 20.4637 62.1164 20.6872C61.6143 20.9107 61.0669 21.0134 60.5179 20.9871C59.2117 20.9459 57.9728 20.3981 57.0634 19.4595C56.154 18.521 55.6455 17.2654 55.6455 15.9586C55.6455 14.6518 56.154 13.3962 57.0634 12.4577C57.9728 11.5191 59.2117 10.9713 60.5179 10.9301C61.0669 10.9038 61.6143 11.0065 62.1164 11.23C62.6185 11.4535 63.0611 11.7916 63.4089 12.2171V11.2071L66.2999 11.2091ZM63.4099 15.9601C63.4299 15.4815 63.3061 15.0078 63.0546 14.6001C62.8031 14.1923 62.4353 13.8692 61.9986 13.6723C61.5619 13.4753 61.0763 13.4136 60.6042 13.495C60.1321 13.5764 59.6952 13.7972 59.3496 14.1291C59.0041 14.4609 58.7658 14.8885 58.6653 15.3569C58.5649 15.8253 58.6069 16.3131 58.7861 16.7574C58.9652 17.2017 59.2732 17.5823 59.6704 17.8501C60.0676 18.1179 60.5359 18.2607 61.0149 18.2601C61.327 18.2819 61.6401 18.2381 61.9342 18.1315C62.2283 18.0249 62.4968 17.8578 62.7224 17.6412C62.948 17.4245 63.1258 17.163 63.2442 16.8734C63.3626 16.5839 63.4191 16.2728 63.4099 15.9601Z" fill="white"/>
<path d="M67.9821 16.159C67.978 15.1204 68.2821 14.1038 68.8562 13.2382C69.4302 12.3726 70.2482 11.6968 71.2066 11.2965C72.165 10.8961 73.2206 10.7892 74.2398 10.9893C75.259 11.1894 76.1959 11.6874 76.9318 12.4204C77.6677 13.1533 78.1695 14.0882 78.3737 15.1066C78.5779 16.125 78.4752 17.1811 78.0787 18.1411C77.6822 19.101 77.0097 19.9218 76.1464 20.4992C75.283 21.0767 74.2678 21.385 73.2291 21.385C72.5397 21.3929 71.8555 21.2632 71.2168 21.0036C70.578 20.744 69.9974 20.3597 69.5089 19.8732C69.0203 19.3866 68.6337 18.8075 68.3716 18.1698C68.1094 17.5321 67.977 16.8485 67.9821 16.159ZM75.5061 16.159C75.4937 15.7113 75.3496 15.2772 75.0919 14.9109C74.8341 14.5447 74.4741 14.2625 74.0569 14.0998C73.6396 13.937 73.1836 13.9008 72.746 13.9958C72.3083 14.0908 71.9083 14.3126 71.596 14.6337C71.2838 14.9547 71.073 15.3607 70.9902 15.8009C70.9074 16.241 70.9562 16.6958 71.1305 17.1084C71.3048 17.521 71.5968 17.873 71.97 18.1205C72.3433 18.368 72.7812 18.5 73.2291 18.5C73.5358 18.5082 73.8409 18.4527 74.1251 18.3371C74.4094 18.2215 74.6666 18.0483 74.8805 17.8284C75.0944 17.6084 75.2605 17.3465 75.3681 17.0592C75.4758 16.7719 75.5228 16.4654 75.5061 16.159Z" fill="white"/>
<path d="M79.8608 8.55605C79.8608 8.2036 79.9653 7.85907 80.1611 7.56603C80.3569 7.27298 80.6353 7.04457 80.9609 6.9097C81.2865 6.77482 81.6448 6.73953 81.9905 6.80829C82.3361 6.87705 82.6537 7.04677 82.9029 7.29599C83.1521 7.5452 83.3218 7.86272 83.3906 8.2084C83.4593 8.55407 83.424 8.91237 83.2892 9.23799C83.1543 9.56361 82.9259 9.84192 82.6328 10.0377C82.3398 10.2335 81.9953 10.3381 81.6428 10.3381C81.1717 10.3334 80.7211 10.1441 80.3879 9.81093C80.0548 9.47775 79.8655 9.02721 79.8608 8.55605ZM80.1608 11.209H83.1318V21.109H80.1568L80.1608 11.209Z" fill="white"/>
<path d="M95.9562 16.159C95.9905 16.8133 95.8952 17.4679 95.6756 18.0852C95.4561 18.7025 95.1167 19.2703 94.6769 19.756C94.2372 20.2416 93.7057 20.6356 93.1132 20.9152C92.5206 21.1947 91.8787 21.3544 91.2242 21.385C90.6738 21.415 90.1237 21.3222 89.6136 21.1133C89.1035 20.9043 88.6464 20.5845 88.2752 20.177V25.068H85.3052V11.209H88.2752V12.139C88.6465 11.7318 89.1038 11.4122 89.6138 11.2035C90.1239 10.9947 90.6739 10.902 91.2242 10.932C91.8788 10.9625 92.5209 11.1221 93.1136 11.4017C93.7063 11.6813 94.2378 12.0753 94.6776 12.5611C95.1174 13.0469 95.4568 13.6149 95.6762 14.2324C95.8956 14.8498 95.9908 15.5046 95.9562 16.159ZM92.9862 16.159C92.9746 15.6957 92.8266 15.2461 92.5607 14.8664C92.2948 14.4868 91.9229 14.194 91.4915 14.0248C91.06 13.8555 90.5882 13.8172 90.1351 13.9148C89.682 14.0123 89.2678 14.2413 88.9442 14.5731C88.6206 14.905 88.4021 15.3248 88.316 15.7803C88.2299 16.2357 88.28 16.7063 88.4601 17.1334C88.6401 17.5605 88.9422 17.9249 89.3284 18.1812C89.7146 18.4374 90.1677 18.5741 90.6312 18.574C90.9494 18.5882 91.267 18.5349 91.5632 18.4177C91.8593 18.3006 92.1274 18.1221 92.3497 17.8941C92.5721 17.666 92.7437 17.3936 92.8534 17.0946C92.9631 16.7956 93.0084 16.4767 92.9862 16.159Z" fill="white"/>
<path d="M105.121 18.138C105.121 20.415 103.142 21.385 101.004 21.385C100.14 21.4632 99.2728 21.2806 98.5139 20.8605C97.755 20.4405 97.1396 19.8025 96.7471 19.029L99.3201 17.564C99.4242 17.9215 99.6478 18.2326 99.9535 18.4451C100.259 18.6577 100.629 18.759 101 18.732C101.712 18.732 102.069 18.514 102.069 18.119C102.069 17.029 97.1981 17.604 97.1981 14.179C97.1981 12.02 99.0201 10.932 101.079 10.932C101.853 10.9075 102.619 11.0911 103.298 11.4636C103.977 11.8362 104.544 12.384 104.939 13.05L102.405 14.416C102.294 14.1567 102.109 13.9358 101.873 13.7809C101.637 13.626 101.361 13.544 101.079 13.545C100.564 13.545 100.247 13.745 100.247 14.099C100.251 15.228 105.121 14.475 105.121 18.138Z" fill="white"/>
<path d="M115.97 11.209V21.109H113V20.178C112.657 20.5888 112.222 20.9125 111.73 21.1225C111.238 21.3325 110.704 21.4228 110.17 21.386C108.17 21.386 106.47 19.961 106.47 17.286V11.209H109.44V16.851C109.415 17.0868 109.442 17.3252 109.519 17.5495C109.595 17.7739 109.72 17.9789 109.884 18.1502C110.048 18.3215 110.247 18.455 110.468 18.5415C110.688 18.628 110.925 18.6654 111.162 18.651C112.251 18.651 113.003 18.018 113.003 16.612V11.212L115.97 11.209Z" fill="white"/>
<path d="M133 15.03V21.108H130.03V15.287C130.03 14.297 129.555 13.664 128.605 13.664C127.615 13.664 127.06 14.357 127.06 15.525V21.108H124.091V15.287C124.091 14.297 123.616 13.664 122.665 13.664C121.675 13.664 121.121 14.357 121.121 15.525V21.108H118.151V11.208H121.121V12.118C121.429 11.7143 121.833 11.3941 122.296 11.1868C122.76 10.9794 123.268 10.8915 123.774 10.931C124.282 10.9061 124.788 11.0134 125.243 11.2423C125.697 11.4711 126.084 11.8139 126.367 12.237C126.696 11.7943 127.132 11.4423 127.634 11.2139C128.136 10.9855 128.688 10.8882 129.238 10.931C131.511 10.932 133 12.555 133 15.03Z" fill="white"/>
</svg>
