<svg width="49" height="48" viewBox="0 0 49 48" fill="none" xmlns="http://www.w3.org/2000/svg">
<path d="M18.6945 28.79H2.49186C2.55244 26.7661 2.98041 24.7685 3.75634 22.8954L3.75635 22.8954C4.59613 20.868 5.82696 19.0259 7.37865 17.4742L7.02509 17.1207L7.37865 17.4742C8.93033 15.9225 10.7724 14.6917 12.7997 13.8519M18.6945 28.79V12.5874C16.6705 12.648 14.673 13.076 12.7997 13.8519M18.6945 28.79H19.1945V12.58M12.7997 13.8519L12.6084 13.39M12.7997 13.8519L12.6084 13.39M12.6084 13.39C14.5424 12.589 16.6048 12.148 18.6945 12.0872L12.6084 13.39Z" stroke="white"/>
<path d="M2.49186 29.7899C2.55244 31.8139 2.98041 33.8114 3.75635 35.6847C4.59613 37.712 5.82696 39.5541 7.37865 41.1058L7.02509 41.4593L7.37865 41.1058C8.93033 42.6574 10.7724 43.8883 12.7997 44.7281C12.7997 44.7281 12.7997 44.7281 12.7997 44.7281L12.6084 45.19C14.5424 45.9911 16.6048 46.432 18.6945 46.4928L2.49186 29.7899ZM2.49186 29.7899H18.6945V45.9925L2.49186 29.7899Z" stroke="white"/>
<path d="M31.0101 41.1057L31.0101 41.1058C29.4584 42.6574 27.6163 43.8883 25.5889 44.7281L25.5889 44.7281C23.7158 45.504 21.7182 45.932 19.6943 45.9925V29.7899H35.8967C35.8361 31.8139 35.4084 33.8114 34.6326 35.6847C33.7928 37.712 32.562 39.5541 31.0101 41.1057Z" stroke="white"/>
<path d="M47.0154 14.422C47.0154 21.5586 41.2298 27.344 34.0933 27.344H21.1714V14.422C21.1714 7.2854 26.9568 1.5 34.0933 1.5C41.2298 1.5 47.0154 7.2854 47.0154 14.422Z" fill="white"/>
</svg>
