<svg width="107" height="23" viewBox="0 0 107 23" fill="none" xmlns="http://www.w3.org/2000/svg">
<path d="M3.5821 0.283936H0V16.4472H9.9164V13.2801H3.5821V0.283936Z" fill="white"/>
<path d="M10.2583 10.9648C10.2583 14.4159 12.5736 16.7093 16.0683 16.7093C19.5412 16.7093 21.8565 14.4159 21.8565 10.9648C21.8565 7.51366 19.5412 5.19836 16.0683 5.19836C12.5736 5.19836 10.2583 7.51366 10.2583 10.9648ZM13.6438 10.9429C13.6438 9.30476 14.6049 8.21266 16.0683 8.21266C17.5099 8.21266 18.471 9.30476 18.471 10.9429C18.471 12.603 17.5099 13.6951 16.0683 13.6951C14.6049 13.6951 13.6438 12.603 13.6438 10.9429Z" fill="white"/>
<path d="M22.3977 10.7901C22.3977 14.0882 24.5383 16.3161 27.5743 16.3161C29.0378 16.3161 30.3046 15.7919 30.938 14.9401V16.4472C30.938 17.9543 29.9988 18.959 28.3388 18.959C26.8535 18.959 25.8269 18.2601 25.7614 17.0151H22.354C22.6598 20.0075 24.9751 22.0169 28.1422 22.0169C31.8772 22.0169 34.2362 19.5925 34.2362 15.7482V5.52608H31.2001L31.0254 6.63999C30.4138 5.74449 29.1251 5.15479 27.6399 5.15479C24.5819 5.15479 22.3977 7.44818 22.3977 10.7901ZM25.8051 10.7027C25.8051 9.12998 26.8535 8.08158 28.1859 8.08158C29.7367 8.08158 30.8725 9.10818 30.8725 10.7027C30.8725 12.2972 29.7585 13.3893 28.2077 13.3893C26.8754 13.3893 25.8051 12.2972 25.8051 10.7027Z" fill="white"/>
<path d="M35.2168 10.9648C35.2168 14.4159 37.5322 16.7093 41.0272 16.7093C44.5002 16.7093 46.8152 14.4159 46.8152 10.9648C46.8152 7.51366 44.5002 5.19836 41.0272 5.19836C37.5322 5.19836 35.2168 7.51366 35.2168 10.9648ZM38.6022 10.9429C38.6022 9.30476 39.5632 8.21266 41.0272 8.21266C42.4682 8.21266 43.4292 9.30476 43.4292 10.9429C43.4292 12.603 42.4682 13.6951 41.0272 13.6951C39.5632 13.6951 38.6022 12.603 38.6022 10.9429Z" fill="white"/>
<path d="M49.715 3.82239C50.763 3.82239 51.615 2.97054 51.615 1.90027C51.615 0.83 50.763 0 49.715 0C48.645 0 47.793 0.83 47.793 1.90027C47.793 2.97054 48.645 3.82239 49.715 3.82239ZM48.011 16.4472H51.397V5.5261H48.011V16.4472Z" fill="white"/>
<path d="M53.3682 21.6893H56.6882V15.3551C57.3212 16.1851 58.7632 16.753 60.2702 16.753C63.5242 16.753 65.4902 14.263 65.4032 10.8119C65.3152 7.29533 63.2842 5.17664 60.2482 5.17664C58.6972 5.17664 57.2342 5.85373 56.6222 6.85853L56.4472 5.52614H53.3682V21.6893ZM56.7532 10.9866C56.7532 9.34854 57.8452 8.25644 59.4182 8.25644C61.0122 8.25644 62.0172 9.37034 62.0172 10.9866C62.0172 12.603 61.0122 13.7169 59.4182 13.7169C57.8452 13.7169 56.7532 12.6248 56.7532 10.9866Z" fill="white"/>
<path d="M65.7612 12.9961C65.8482 15.2022 67.5962 16.7311 70.3482 16.7311C72.9912 16.7311 74.8262 15.3332 74.8262 13.0835C74.8262 11.4672 73.8652 10.3969 72.0732 9.96004L70.1302 9.47954C69.4312 9.30484 68.9942 9.13004 68.9942 8.56214C68.9942 7.99424 69.4522 7.62294 70.1302 7.62294C70.8942 7.62294 71.3962 8.12534 71.3752 8.86794H74.4112C74.3232 6.59634 72.5982 5.17664 70.1952 5.17664C67.7712 5.17664 65.9582 6.61823 65.9582 8.80243C65.9582 10.2658 66.7662 11.4672 68.9282 12.0351L70.8502 12.5374C71.4182 12.6903 71.6582 12.9524 71.6582 13.3237C71.6582 13.8698 71.1562 14.2193 70.3042 14.2193C69.3212 14.2193 68.7972 13.7606 68.7972 12.9961H65.7612Z" fill="white"/>
<path d="M79.9741 16.7311C81.3071 16.7311 82.6391 16.1195 83.3161 15.224L83.5351 16.4472H86.7021V5.52612H83.3381V11.2051C83.3381 12.8432 82.8581 13.7387 81.3071 13.7387C80.1051 13.7387 79.3191 13.1927 79.3191 11.1614V5.52612H75.9551V12.3845C75.9551 14.9838 77.3971 16.7311 79.9741 16.7311Z" fill="white"/>
<path d="M92.0359 16.4472V10.4843C92.0359 8.64949 93.0189 8.12529 93.9799 8.12529C95.0499 8.12529 95.7489 8.78058 95.7489 10.1348V16.4472H99.0689V10.4843C99.0689 8.62769 100.03 8.10349 100.991 8.10349C102.061 8.10349 102.782 8.75868 102.782 10.1348V16.4472H106.059V9.30478C106.059 6.81478 104.748 5.15479 101.93 5.15479C100.358 5.15479 99.0689 5.91918 98.5009 7.09868C97.8459 5.91918 96.7099 5.15479 94.8969 5.15479C93.6959 5.15479 92.5819 5.70078 91.9269 6.57448L91.7959 5.52608H88.6499V16.4472H92.0359Z" fill="white"/>
</svg>
