<svg width="49" height="49" viewBox="0 0 49 49" fill="none" xmlns="http://www.w3.org/2000/svg">
<path d="M17.2221 7.80317L19.8363 3.00895C20.2743 2.20563 21.1162 1.70577 22.0312 1.70577H26.9688C27.8838 1.70577 28.7257 2.20562 29.1637 3.00895L31.7779 7.80317C32.1847 8.54921 32.1847 9.45079 31.7779 10.1968L29.1637 14.9911C28.7257 15.7944 27.8838 16.2942 26.9688 16.2942H22.0312C21.1162 16.2942 20.2743 15.7944 19.8363 14.9911L17.2221 10.1968C16.8153 9.45079 16.8153 8.54921 17.2221 7.80317Z" stroke="white"/>
<path d="M17.2221 38.8032L19.8363 34.0089C20.2743 33.2056 21.1162 32.7058 22.0312 32.7058H26.9688C27.8838 32.7058 28.7257 33.2056 29.1637 34.0089L31.7779 38.8032C32.1847 39.5492 32.1847 40.4508 31.7779 41.1968L29.1637 45.9911C28.7257 46.7944 27.8838 47.2942 26.9688 47.2942H22.0312C21.1162 47.2942 20.2743 46.7944 19.8363 45.9911L17.2221 41.1968C16.8153 40.4508 16.8153 39.5492 17.2221 38.8032Z" stroke="white"/>
<path d="M34.6378 9.47135L39.8906 9.43015C40.7611 9.42332 41.5585 9.89893 41.9849 10.6792L44.6032 15.471C45.0296 16.2513 45.0207 17.2189 44.5798 18.012L41.9197 22.7979C41.4729 23.6017 40.6512 24.103 39.769 24.1099L34.5162 24.1511C33.6457 24.158 32.8483 23.6823 32.4219 22.9021L29.8036 18.1102C29.3772 17.3299 29.3861 16.3624 29.827 15.5693L32.4871 10.7834C32.9339 9.97953 33.7556 9.47827 34.6378 9.47135Z" stroke="white"/>
<path d="M9.23102 24.8138L14.4838 24.7726C15.3543 24.7657 16.1517 25.2413 16.5781 26.0216L19.1964 30.8135C19.6228 31.5937 19.6139 32.5613 19.173 33.3544L16.5129 38.1403C16.0661 38.9441 15.2444 39.4454 14.3622 39.4523L9.10944 39.4935C8.23893 39.5004 7.44147 39.0248 7.01511 38.2445L4.39677 33.4526C3.97041 32.6723 3.97931 31.7048 4.42017 30.9117L7.0803 26.1258C7.52709 25.3219 8.34879 24.8207 9.23102 24.8138Z" stroke="white"/>
<path d="M9.23102 9.47135L14.4838 9.43015C15.3543 9.42332 16.1517 9.89893 16.5781 10.6792L19.1964 15.471C19.6228 16.2513 19.6139 17.2189 19.173 18.012L16.5129 22.7979C16.0661 23.6017 15.2444 24.103 14.3622 24.1099L9.10944 24.1511C8.23893 24.158 7.44147 23.6823 7.01511 22.9021L4.39677 18.1102C3.97041 17.3299 3.97931 16.3624 4.42017 15.5693L7.0803 10.7834C7.52709 9.97953 8.34879 9.47827 9.23102 9.47135Z" stroke="white"/>
<path d="M34.6378 24.8138L39.8906 24.7726C40.7611 24.7657 41.5585 25.2413 41.9849 26.0216L44.6032 30.8135C45.0296 31.5937 45.0207 32.5613 44.5798 33.3544L41.9197 38.1403C41.4729 38.9441 40.6512 39.4454 39.769 39.4523L34.5162 39.4935C33.6457 39.5004 32.8483 39.0248 32.4219 38.2445L29.8036 33.4526C29.3772 32.6723 29.3861 31.7048 29.827 30.9117L32.4871 26.1258C32.9339 25.3219 33.7556 24.8207 34.6378 24.8138Z" stroke="white"/>
</svg>
