<svg width="34" height="34" viewBox="0 0 34 34" fill="none" xmlns="http://www.w3.org/2000/svg">
<path d="M31.3556 34L19.4556 22.1C18.5111 22.8556 17.425 23.4537 16.1972 23.8944C14.9694 24.3352 13.663 24.5556 12.2778 24.5556C8.8463 24.5556 5.94213 23.3671 3.56528 20.9903C1.18843 18.6134 0 15.7093 0 12.2778C0 8.8463 1.18843 5.94213 3.56528 3.56528C5.94213 1.18843 8.8463 0 12.2778 0C15.7093 0 18.6134 1.18843 20.9903 3.56528C23.3671 5.94213 24.5556 8.8463 24.5556 12.2778C24.5556 13.663 24.3352 14.9694 23.8944 16.1972C23.4537 17.425 22.8556 18.5111 22.1 19.4556L34 31.3556L31.3556 34ZM12.2778 20.7778C14.6389 20.7778 16.6458 19.9514 18.2986 18.2986C19.9514 16.6458 20.7778 14.6389 20.7778 12.2778C20.7778 9.91667 19.9514 7.90972 18.2986 6.25694C16.6458 4.60417 14.6389 3.77778 12.2778 3.77778C9.91667 3.77778 7.90972 4.60417 6.25694 6.25694C4.60417 7.90972 3.77778 9.91667 3.77778 12.2778C3.77778 14.6389 4.60417 16.6458 6.25694 18.2986C7.90972 19.9514 9.91667 20.7778 12.2778 20.7778Z" fill="white"/>
</svg>
