<svg width="308" height="269" viewBox="0 0 308 269" fill="none" xmlns="http://www.w3.org/2000/svg">
<path fill-rule="evenodd" clip-rule="evenodd" d="M308 45.5491C308 49.7704 306.675 53.6704 304.404 56.8579C298.352 65.8942 290.131 72.4539 281.926 79.3253C280.196 80.9921 279.163 83.2514 279.035 85.6479C278.119 127.168 262.708 174.652 235.254 206.031C202.417 243.549 157.652 269 105.871 269C100.562 269 96.2456 264.694 96.2456 259.394C96.2456 254.084 100.562 249.788 105.871 249.788C201.251 249.788 253.22 166.575 259.273 95.5356C259.556 94.5438 259.729 93.2631 259.729 91.4434C259.729 90.8382 259.739 90.2354 259.771 89.6446C260.246 81.3618 263.959 73.9411 269.655 68.6199C269.937 68.3503 270.153 68.1042 270.36 67.8556C277.311 61.0263 283.721 53.0454 288.684 45.5503C281.635 48.7071 274.2 51.0966 266.473 52.7128C265.181 52.7128 264.091 51.6249 264.091 50.3113C264.09 49.9974 264.152 49.6865 264.272 49.3964C264.392 49.1063 264.569 48.8427 264.791 48.6206C264.81 48.5996 264.725 48.6302 264.716 48.6302C272.301 42.0188 278.119 33.3794 281.249 23.5247C276.154 26.562 270.778 29.1791 265.199 31.3885C261.595 32.8216 257.68 33.6495 253.554 33.6495C247.134 33.6495 241.166 31.7217 236.203 28.4148C236.01 28.2857 235.813 28.1993 235.62 28.0816C227.395 22.5677 217.803 19.2494 206.937 19.2494L205.805 19.4535C181.897 19.4535 163.728 32.9057 156.937 53.4993C156.747 53.5876 154.801 62.1484 154.606 63.3774C152.804 74.8573 142.855 83.6354 130.842 83.6354C129.554 83.6369 128.269 83.5287 127 83.3118C95.4347 77.4209 66.9357 63.7971 45.6644 41.6418C45.5351 41.5337 45.4364 41.5013 45.2529 41.3182C42.4376 38.506 37.8718 38.506 35.045 41.3182C34.4037 41.9648 33.8875 42.724 33.5225 43.5576C33.4376 43.7642 33.3841 43.7642 33.3179 43.8062C30.7493 49.7301 28.8718 56.1374 28.8718 62.472C28.8718 75.5795 34.2131 87.5445 42.2427 97.0545C42.2427 97.0666 42.1465 97.0125 42.1886 97.0545C42.9154 97.921 43.313 99.0153 43.3117 100.145C43.3117 102.795 41.1521 104.948 38.4968 104.948C37.968 104.948 37.4723 104.81 36.9977 104.648C36.9229 104.615 36.8477 104.583 36.7721 104.552C36.6849 104.583 36.5886 104.627 36.4358 104.552C35.7704 104.218 35.0356 104.044 34.2907 104.045C31.6775 104.045 29.563 106.156 29.4968 108.74C32.0017 125.833 42.5128 140.966 56.7037 149.841C56.5202 149.823 56.4125 149.823 56.4781 149.86C57.1464 150.297 57.6953 150.894 58.0755 151.595C58.4557 152.297 58.6553 153.082 58.6564 153.879C58.6564 156.529 56.4992 158.682 53.8439 158.682C53.7897 158.682 53.7356 158.673 53.6814 158.673C53.6183 158.659 53.5641 158.64 53.498 158.631C53.3265 158.607 53.1641 158.574 52.9902 158.556C51.6957 158.621 50.6802 159.644 50.6802 160.934C50.6751 161.296 50.7565 161.655 50.9179 161.98C54.8352 171.717 61.4615 180.038 69.8039 186.126C69.9026 186.201 69.9236 186.267 70.0415 186.352C70.7538 186.858 71.4233 187.439 72.0718 188.078C78.6421 194.635 78.6421 205.277 72.0718 211.849C70.0536 213.847 67.6563 215.25 65.1208 216.024C65.0997 216.033 65.1111 216.024 65.0877 216.033C55.225 219.157 44.7777 220.968 33.6843 220.968H27.6735C26.3458 220.968 25.2672 222.047 25.2672 223.369C25.2672 224.148 25.6552 224.795 26.2165 225.227C30.1784 227.572 34.2365 229.866 38.4547 232L38.4451 232.009C41.2814 233.594 43.2365 236.586 43.2365 240.076C43.2365 245.193 39.0821 249.34 33.9544 249.34C31.8609 249.34 29.9408 248.618 28.3851 247.454C21.641 243.932 15.1014 240.161 8.88605 236.145C1.31238 231.257 -1.90478 221.745 1.13853 213.213C3.90211 205.412 11.1864 201.754 19.2486 201.754C22.8297 202.185 30.0178 201.754 33.6861 201.754C41.0787 201.754 47.134 200.234 54.1368 198.545C43.6257 189.648 35.5094 177.799 31.1174 163.981C30.0423 160.599 29.9081 156.989 30.7294 153.536C18.3083 140.009 9.62116 120.339 9.62116 100.899C9.71741 96.0843 12.7932 92.0672 15.9352 88.6312C12.8919 80.3694 9.62116 71.5606 9.62116 62.4702C9.62116 49.1796 14.7693 36.0721 21.3841 24.6438C24.5778 19.1299 32.1864 14.9393 38.498 14.4446C44.2718 14.4446 49.3448 17.6104 53.0245 22.1558C71.1773 44.5813 99.5891 56.6333 127.541 63.5257C128.015 63.6103 128.523 63.6758 129.031 63.6758C133.618 63.6758 137.415 60.498 138.409 56.2106C146.069 23.9216 171.182 0 205.805 0C220.45 0 234.727 4.40679 246.8 12.3877C248.68 13.5722 250.87 14.2945 253.253 14.2945C254.31 14.2945 255.325 14.121 256.284 13.8628C261.501 11.9236 266.581 9.67213 271.394 6.7873C274.448 4.96515 277.847 4.82646 281.235 4.82646C285.511 4.82646 289.774 5.50429 293.271 8.30447C299.54 13.3351 302.073 21.7476 299.624 29.4373C299.624 29.4583 299.615 29.4793 299.615 29.5003C302.208 31.3002 304.325 33.7004 305.785 36.4954C307.245 39.2904 308.005 42.3969 308 45.5491ZM19.2486 201.754C20.0023 201.754 18.4918 201.669 19.2486 201.754ZM38.498 14.4446C38.9961 14.3995 38.0017 14.4446 38.498 14.4446ZM72.1903 244.985C77.5009 244.985 81.8177 249.281 81.8177 254.591C81.8177 259.891 77.5009 264.197 72.1903 264.197C66.8701 264.197 62.5653 259.891 62.5653 254.591C62.5653 249.281 66.8707 244.985 72.1903 244.985Z" fill="#FA7432"/>
</svg>
